<?xml version="1.0" encoding="utf-8" ?><svg xmlns="http://www.w3.org/2000/svg" xmlns:xlink="http://www.w3.org/1999/xlink" width="1024" height="1024" viewBox="0 0 1024 1024"><path fill="#1F3654" d="M472.416 199.693C482.822 199.999 519.291 198.194 525.216 202.004C529.001 207.475 521.646 212.135 518.532 216.413C509.749 228.263 505.191 242.715 505.588 257.46C506.162 276.677 514.354 294.878 528.358 308.05C543.091 321.767 558.938 326.352 578.744 325.674C581.914 338.145 590.387 359.715 594.921 372.331L624.07 453.873C628.021 464.881 633.764 479.32 636.504 490.716C636.867 492.224 635.591 495.127 634.516 496.135C628.138 502.109 612.054 499.52 603.875 499.708L603.376 499.723C591.257 500.262 567.359 504.38 563.897 489.407C563.058 485.777 561.481 481.772 560.311 478.214L547.095 437.05C521.227 436.773 495.255 437.312 469.353 437.392C463.805 429.921 456.591 415.981 451.757 407.334C447.092 398.992 428.278 371.073 427.998 362.737C427.387 344.533 442.269 334.265 424.182 316.931C426.126 308.559 429.339 299.445 432.071 291.261L445.081 252.618C448.589 241.796 452.195 231.006 455.9 220.25C459.537 209.955 460.397 202.276 472.416 199.693ZM455.358 393.562C466.32 394.249 481.526 393.84 492.75 393.83L534.014 393.814C529.042 379.375 501.66 286.792 497.177 281.826C487.757 304.761 479.543 329.021 470.853 352.341C467.604 361.115 464.311 369.873 460.974 378.615C459.435 382.621 456.444 389.72 455.358 393.562Z"/><path fill="#1F3654" d="M412.399 321.741C424.16 322.394 429.878 330.318 426.423 342.092C425.752 344.38 423.782 346.9 422.379 348.891C422.788 355.655 423.038 362.562 422.653 369.331C439.563 398.332 457.523 427.223 473.23 456.97C478.962 467.827 478.643 481.394 469.485 490.523C466.465 493.569 462.659 495.717 458.491 496.727C450.31 498.785 434.441 498.225 425.473 498.214L382.75 498.149C370.781 498.188 343.75 499.651 334.498 493.968C328.139 489.996 323.67 483.606 322.121 476.27C320.436 468.304 322.732 462.154 326.844 455.473C342.938 429.318 358.424 402.466 374.969 376.625C375.064 368.099 375.025 359.573 374.85 351.049C373.566 350.31 372.35 349.46 371.216 348.506C361.363 340.378 363.902 324.079 376.65 322.51C387.766 321.142 401.012 322.037 412.399 321.741ZM385.516 350.509C385.904 379.584 388.406 375.315 373.301 400.003L351.482 436.317C345.069 446.985 336.659 458.48 332.614 470.102C330.659 475.718 338.233 484.778 343.802 485.883C352.653 487.639 362.252 487.113 371.317 487.106C383.503 487.053 395.689 487.065 407.875 487.142C421.866 487.225 439.138 488.407 452.925 486.594C465.051 483.741 468.863 473.709 463.338 462.794C457.684 451.623 452.909 444.428 446.397 433.023C435.354 413.681 423.471 393.187 412.213 373.932C410.76 371.447 411.507 357.946 410.662 354.417C410.419 352.315 409.716 345.391 410.89 343.908C414.035 339.939 419.066 339.655 415.494 334.112C411.883 332.218 384.237 332.687 378.18 332.55C376.854 333.953 376.383 334.241 375.901 336.132C377.456 342.476 391.894 336.571 396.265 342.729C397.747 349.835 390.235 350.283 385.516 350.509Z"/><path fill="#5DED66" d="M364.095 424.422C366.099 423.194 368.18 422.097 370.325 421.138C390.753 412.228 404.091 431.572 423.113 438.878C428.348 437.871 434.611 434.866 439.448 435.9C443.797 438.925 451.467 454.053 454.026 459.382C456.12 463.207 458.812 467.815 460.697 471.664C461.617 473.701 461.649 474.8 460.963 476.81C460.305 477.57 459.848 478.028 458.9 478.431C454.354 480.364 365.597 479.926 353.815 479.31C351.592 479.194 349.109 478.996 347.047 478.126C344.337 476.964 342.234 474.726 341.242 471.949C338.485 464.219 346.166 454.005 350.338 447.729C355.536 439.911 359.821 432.782 364.095 424.422Z"/><path fill="#1F3654" d="M364.095 424.422C366.099 423.194 368.18 422.097 370.325 421.138C390.753 412.228 404.091 431.572 423.113 438.878C428.348 437.871 434.611 434.866 439.448 435.9C443.797 438.925 451.467 454.053 454.026 459.382C452.685 460.561 452.249 461.204 450.486 461.347C444.903 459.897 440.937 449.265 437.691 444.489C427.703 448.275 422.032 450.161 411.712 445.516C400.358 440.407 387.479 425.294 374.026 430.16C371.335 431.133 369.041 432.83 367.12 434.932C363.237 439.183 353.203 456.573 350.828 462.227C349.904 464.427 349.005 466.816 349.919 469.161C350.251 470.014 350.646 470.384 351.468 470.815C354.943 472.637 448.914 472.137 460.697 471.664C461.617 473.701 461.649 474.8 460.963 476.81C460.305 477.57 459.848 478.028 458.9 478.431C454.354 480.364 365.597 479.926 353.815 479.31C351.592 479.194 349.109 478.996 347.047 478.126C344.337 476.964 342.234 474.726 341.242 471.949C338.485 464.219 346.166 454.005 350.338 447.729C355.536 439.911 359.821 432.782 364.095 424.422Z"/><path fill="#1F3654" d="M407.054 382.348C410.113 382.327 412.618 384.772 412.671 387.831C412.724 390.889 410.306 393.42 407.248 393.505C405.242 393.561 403.359 392.535 402.32 390.818C401.28 389.101 401.243 386.957 402.222 385.205C403.202 383.453 405.047 382.362 407.054 382.348Z"/><path fill="#1F3654" d="M421.157 416.679C424.137 416.411 426.776 418.593 427.076 421.57C427.375 424.547 425.222 427.21 422.248 427.541C420.296 427.758 418.378 426.909 417.225 425.319C416.072 423.729 415.863 421.642 416.676 419.855C417.489 418.067 419.2 416.854 421.157 416.679Z"/><path fill="#1F3654" d="M395.69 363.211C397.017 362.54 398.603 362.637 399.839 363.464C401.075 364.292 401.768 365.721 401.652 367.204C401.537 368.687 400.631 369.992 399.282 370.619C397.244 371.565 394.824 370.703 393.844 368.681C392.863 366.659 393.685 364.225 395.69 363.211Z"/><path fill="#1F3654" d="M382.6 397.798C384.639 396.886 387.033 397.769 387.992 399.787C388.951 401.804 388.124 404.218 386.13 405.225C384.798 405.897 383.206 405.794 381.97 404.957C380.735 404.12 380.05 402.679 380.181 401.192C380.311 399.706 381.237 398.407 382.6 397.798Z"/><path fill="#1F3654" d="M571.37 194.219C583.934 193.81 596.342 197.095 607.057 203.667C636.024 221.462 645.265 256.364 629.672 286.506C627.85 290.027 625.711 293.302 623.586 296.644C627.466 300.901 631.847 306.648 635.676 311.189C643.563 320.444 651.523 329.636 659.556 338.764C673.921 355.049 688.742 371.136 703.147 387.397C705.177 390.148 708.502 393.442 709.35 396.76C713.345 412.385 700.662 427.752 684.268 424.28C677.899 422.931 674.048 418.562 670.375 413.275C656.286 390.677 641.972 368.219 627.436 345.905C619.988 334.635 611.205 323.398 604.185 312.214C596.044 316.286 589.741 318.333 580.572 319.188C564.348 320.64 548.208 315.618 535.672 305.216C522.622 294.394 514.411 278.825 512.85 261.944C511.285 245.279 516.536 228.691 527.407 215.963C538.719 202.627 554.118 195.616 571.37 194.219ZM581.25 309.894C610.434 306.302 631.226 279.795 627.761 250.594C624.297 221.394 597.879 200.488 568.664 203.826C539.27 207.185 518.207 233.8 521.693 263.18C525.179 292.56 551.885 313.507 581.25 309.894ZM624.873 324.092C626.729 322.547 628.753 320.928 630.538 319.324C626.066 313.65 621.522 308.034 616.906 302.477C615.232 303.983 613.357 305.758 611.654 307.183C613.204 309.336 623.688 323.563 624.873 324.092Z"/><path fill="#1F3654" d="M565.057 211.562C568.062 211.275 570.873 211.464 572.135 214.619C570.983 219.196 562.806 219.816 558.868 221.489C540.532 229.28 531.121 250.513 538.371 269.201C544.609 271.895 546.362 274.245 544.527 281.012C536.814 285.843 532.892 278.311 531.046 271.779C523.088 243.608 537.183 219.65 565.057 211.562Z"/><path fill="#1F3654" d="M615.114 246.356C619.401 246.56 620.908 250.587 620.879 254.357C620.654 283.468 601.462 301.611 573.375 302.675C571.434 302.709 570.722 302.671 569.277 301.477C568.72 299.706 568.76 300.604 569.345 298.691C571.297 296.567 583.652 296.574 588.515 294.655C601.956 289.379 613.171 276.183 614.402 261.527C614.817 256.594 612.883 250.309 615.114 246.356Z"/><path fill="#1F3654" d="M551.148 289.144C557.961 288.123 568.888 292.541 561.343 300.027C555.729 299.935 544.958 296.268 551.148 289.144Z"/><path fill="#1F3654" d="M598.962 219.528C605.87 219.073 609.901 223.085 606.497 229.725C599.71 230.889 594.938 226.13 598.962 219.528Z"/><path fill="#5DED66" d="M636.763 326.899C642.304 331.795 649.1 339.768 654.128 345.459L680.469 375.536C687.13 383.142 694.588 390.745 700.713 398.657C705.083 404.303 698.515 412.068 693.908 415.115C681.305 418.374 676.842 406.817 671.274 397.948L657.904 376.773C648.334 361.736 638.024 347.189 628.708 332.16L636.763 326.899Z"/><path fill="#1F3654" d="M669.976 532.741C676.057 532.531 682.478 533.551 688 536.176C695.942 539.996 702.015 546.85 704.853 555.195C707.892 564.459 707.058 574.558 702.542 583.199C697.743 592.538 691.479 596.367 681.845 599.4C688.841 602.724 692.305 602.502 699.76 602.852C711.275 603.393 709.692 612.907 698.436 614.06C694.15 614.063 687.983 613.68 683.992 612.251C678.757 610.377 674.014 605.377 668.98 602.887C662.739 599.887 655.841 599.513 650.176 595.206C635.06 583.713 631.036 561.425 643.342 546.356C650.306 537.829 659.144 533.962 669.976 532.741ZM674.746 588.322C686.345 586.538 694.311 575.701 692.553 564.097C690.794 552.494 679.974 544.503 668.367 546.236C656.723 547.975 648.702 558.836 650.467 570.476C652.231 582.116 663.11 590.112 674.746 588.322Z"/><path fill="#1F3654" d="M575.042 533.052C578.617 532.959 585.955 532.348 588.772 533.868C590.518 539.045 590.469 592.861 588.816 598.529C586.712 600.001 579.033 600.264 577.209 598.882C574.247 594.694 575.27 580.582 575.325 574.625L575.528 556.314C564.794 569.238 557.634 597.155 543.61 569.321C541.604 565.338 537.911 559.959 535.535 555.844C535.478 562.139 535.817 594.47 534.616 598.415C532.203 600.491 525.237 600.527 522.707 598.701C521.476 596.21 521.856 539.25 522.108 533.044C526.724 533.021 531.341 533.089 535.954 533.248C539.654 536.769 551.651 556.461 555.496 562.183C561.539 552.164 568.062 542.442 575.042 533.052Z"/><path fill="#1F3654" d="M384.973 532.585C388.45 532.513 393.968 531.933 396.734 533.706C398.183 537.776 397.604 554.598 397.566 559.944C406.53 559.707 415.716 559.885 424.699 559.961C424.778 554.846 423.775 536.004 426.186 533.233C429.843 531.983 434.454 532.626 438.354 532.903C439.32 540.238 438.986 550.286 438.91 557.805C438.703 569.142 438.668 580.482 438.807 591.82C438.831 594.507 439.294 598.075 437.402 600.003C434.181 600.056 428.573 600.505 425.817 599.064C423.679 595.123 424.737 578.049 424.898 572.492C419.287 571.812 404.331 572.445 397.974 572.577C397.858 578.042 400.703 600.722 391.803 600C389.72 599.831 384.224 600.491 384.102 597.928C383.645 588.392 381.313 538.336 384.973 532.585Z"/><path fill="#1F3654" d="M458.249 532.553C471.319 532.226 490.097 532.779 503.604 533.155C506.883 533.246 506.163 540.955 504.726 543.736C501.414 546.698 476.245 545.314 470.787 545.23C470.953 550.162 470.853 555.149 470.807 560.087C476.644 560.03 495.528 559.346 500.101 560.787C502.177 562.82 502.324 569.985 500.461 572.142C496.519 573.789 477.294 573.04 471.486 573.035L470.722 573.507C470.279 576.952 470.5 583.206 470.53 586.884C480.438 586.048 497.095 586.734 507.454 587.053C507.511 590.97 508.137 595.366 506.145 598.557C502.061 600.936 464.842 599.756 458.333 599.222C457.996 597.239 457.128 591.795 457.181 590.066C457.454 581.192 456.176 538.198 458.249 532.553Z"/><path fill="#1F3654" d="M503.605 660.301C517.805 657.815 531.315 667.363 533.711 681.579C536.107 695.794 526.474 709.243 512.243 711.549C498.14 713.834 484.838 704.305 482.463 690.217C480.088 676.128 489.532 662.765 503.605 660.301Z"/><path fill="#FEFFFF" d="M506.024 668.201C515.808 667.059 524.671 674.05 525.838 683.831C527.005 693.613 520.037 702.493 510.258 703.685C500.445 704.881 491.525 697.882 490.354 688.065C489.183 678.249 496.205 669.347 506.024 668.201Z"/><path fill="#1F3654" d="M590.856 660.609C604.992 658.847 617.879 668.878 619.642 683.014C621.404 697.15 611.374 710.038 597.239 711.802C583.102 713.565 570.212 703.534 568.449 689.397C566.686 675.26 576.718 662.37 590.856 660.609Z"/><path fill="#5DED66" d="M590.295 669.218C596.392 667.879 602.738 669.925 606.904 674.574C611.07 679.223 612.412 685.754 610.415 691.669C608.419 697.583 603.394 701.965 597.262 703.138C587.96 704.918 578.953 698.893 577.047 689.615C575.142 680.337 581.044 671.25 590.295 669.218Z"/><path fill="#1F3654" d="M417.482 660.813C431.49 658.342 444.841 667.721 447.266 681.738C449.691 695.754 440.266 709.074 426.242 711.452C412.283 713.819 399.04 704.449 396.627 690.498C394.213 676.547 403.539 663.273 417.482 660.813Z"/><path fill="#FFEA9B" d="M419.281 668.754C428.892 667.205 437.931 673.761 439.444 683.378C440.957 692.994 434.369 702.009 424.747 703.488C415.175 704.959 406.215 698.411 404.71 688.844C403.204 679.277 409.719 670.294 419.281 668.754Z"/><path fill="#1F3654" d="M339.667 531.639C351.593 530.499 360.951 533.454 369.112 542.31C366.627 546.273 364.992 548.306 361.482 551.331C343.061 536.949 322.342 544.675 324.129 570.171C324.743 578.933 332.032 586.444 340.763 587.579C348.802 588.625 354.403 585.66 360.737 580.835C364.299 581.105 368.191 586.152 370.435 588.775C365.727 594.088 359.473 597.794 352.551 599.371C304.462 610.377 290.484 540.842 339.667 531.639Z"/><path fill="#1F3654" d="M608.051 533.123C611.427 533.03 618.139 532.523 620.896 533.769C622.277 538.614 622.013 594.286 620.416 599.503C617.026 599.795 610.804 600.533 608.084 598.776C605.808 591.377 607.561 545.686 607.253 535.281C607.236 534.691 607.779 533.668 608.051 533.123Z"/><path fill="#1F3654" d="M416.652 221.722C425.925 219.858 434.947 225.886 436.773 235.167C438.6 244.447 432.536 253.444 423.249 255.234C414.013 257.014 405.077 250.992 403.261 241.763C401.444 232.535 407.431 223.575 416.652 221.722Z"/><path fill="#5DED66" d="M418.552 229.784C423.392 229.021 427.93 232.336 428.675 237.178C429.42 242.021 426.087 246.546 421.241 247.272C416.423 247.993 411.928 244.683 411.188 239.867C410.447 235.052 413.74 230.544 418.552 229.784Z"/><path fill="#1F3654" d="M398.813 275.248C407.356 273.519 415.689 279.021 417.455 287.556C419.221 296.092 413.754 304.449 405.226 306.25C396.647 308.063 388.229 302.556 386.452 293.969C384.676 285.383 390.219 276.988 398.813 275.248Z"/><path fill="#5DED66" d="M401.106 283.237C403.798 282.906 406.459 284.047 408.076 286.223C409.693 288.4 410.016 291.277 408.922 293.758C407.828 296.239 405.486 297.941 402.788 298.215C398.678 298.633 394.998 295.664 394.536 291.558C394.075 287.452 397.006 283.741 401.106 283.237Z"/><path fill="#1F3654" d="M373.527 243.761C379.814 241.607 386.654 244.967 388.792 251.258C390.93 257.55 387.552 264.382 381.255 266.503C374.981 268.617 368.18 265.255 366.049 258.986C363.919 252.717 367.264 245.907 373.527 243.761Z"/><path fill="#5DED66" d="M375.487 251.754C377.437 250.758 379.825 251.514 380.848 253.449C381.871 255.385 381.15 257.784 379.229 258.834C377.962 259.527 376.419 259.485 375.193 258.722C373.966 257.959 373.245 256.595 373.306 255.152C373.367 253.709 374.2 252.41 375.487 251.754Z"/><path fill="#1F3654" d="M621.68 748.53C629.6 748.515 645.199 746.998 641.7 759.907C640.932 762.739 638.181 764.226 635.811 765.509C638.282 769.199 641.288 773.372 643.09 777.379C642.865 778.069 642.466 778.061 641.549 778.653C640.563 778.146 639.955 777.795 639.018 777.201C636.372 773.898 633.786 769.985 631.046 766.475L625.64 766.401C625.668 769.852 626.447 776.44 623.725 778.676L623.256 778.469C620.839 775.065 621.534 754 621.68 748.53ZM625.51 762.973C629.932 762.908 632.883 763.267 636.742 761.115C641.299 751.829 631.757 751.971 625.542 751.97L625.51 762.973Z"/><path fill="#1F3654" d="M495.718 747.652C499.396 749.132 509.829 773.933 508.602 777.492L507.558 777.497C504.47 775.628 504.175 773.49 502.831 770.05L496.375 770.15C494.364 770.175 491.911 770.016 489.865 769.941C488.912 772.729 488.176 775.575 486.001 777.552C484.288 777.996 485.085 778.062 483.519 777.475C483.339 773.772 493.234 751.696 495.718 747.652ZM491.016 766.951L498.125 767.057L501.226 766.921C501.101 765.108 497.267 755.776 495.887 754.331C494.189 758.508 492.564 762.716 491.016 766.951Z"/><path fill="#1F3654" d="M471.468 747.827C473.158 748.844 474.12 749.959 474.016 752.071C473.664 759.273 475.525 769.919 470.306 775.634C466.544 779.751 457.267 779.66 453.628 775.468C449.021 770.161 449.971 760.79 450.024 754.092C449.909 751.412 449.389 748.432 453.051 748.312C457.083 752.366 449.104 777.528 463.582 774.742C475.681 772.414 466.658 754.484 471.468 747.827Z"/><path fill="#1F3654" d="M594.168 748.768C597.164 748.672 609.909 747.68 611.107 750.715C607.853 752.733 599.837 752.125 595.963 751.97L596.014 761.514C599.376 761.415 608.805 760.264 609.928 763.745C606.173 765.476 598.827 764.241 596.196 765.636L595.984 767.375L596.011 774.608C599.596 774.588 609.586 774.265 611.969 776.35C609.203 778.894 596.355 778.052 592.246 777.985C592.294 773.968 591.48 750.566 592.5 748.892L594.168 748.768Z"/><path fill="#1F3654" d="M560.933 749.207C567.509 748.821 576.181 748.58 582.737 748.993C580.629 753.365 568.373 769.882 564.773 775.014C568.063 775.026 581.416 773.95 582.338 776.915L581.321 777.974C578.114 778.247 561.13 778.963 559.798 777.194C562.063 770.279 571.706 758.675 576.311 752.074C572.689 752.231 562.648 753.182 560.583 750.265L560.933 749.207Z"/><path fill="#1F3654" d="M428.475 748.613C431.172 748.438 441.151 748.825 439.256 753.629C435.742 755.047 434.521 751.498 429.202 751.998C427.551 752.911 427.078 753.039 425.935 754.583C425.696 760.711 438.276 762.248 440.436 768.686C442.176 773.876 438.385 776.474 434.048 778.298C429.706 778.604 423.901 778.813 421.746 773.964C425.366 771.265 433.189 778.377 436.36 771.905C436.764 764.84 408.655 758.122 428.475 748.613Z"/><path fill="#1F3654" d="M371.605 748.426C376.542 748.557 377.489 753.686 379.19 757.757C381.246 762.676 383.084 767.523 385.262 772.409C386.861 767.911 392.403 746.945 398.257 749.213C398.501 750.876 397.824 751.521 397.02 753.365C394.262 758.658 389.101 775.588 385.249 778.507L384.347 778.222C381.679 774.981 372.144 753.052 371.605 748.426Z"/><path fill="#1F3654" d="M518.978 748.31C520.599 748.615 520.674 748.564 522.193 749.361C523.308 752.146 522.628 770.663 522.554 774.944C526.664 774.75 532.016 774.161 535.791 775.342C537.132 776.694 536.728 775.879 536.826 777.97L518.536 777.98C519.123 768.782 518.71 757.798 518.978 748.31Z"/><path fill="#1F3654" d="M545.308 748.828C546.842 748.927 547.371 748.852 548.744 749.588C550.004 751.861 549.399 774.482 549.245 778.563C547.769 778.433 547.113 778.535 545.991 777.584C544.585 772.991 545.245 754.626 545.308 748.828Z"/><path fill="#1F3654" d="M407.277 748.192C408.786 748.433 408.8 748.446 410.205 749.056C411.776 751.445 410.931 773.778 410.856 778.47C409.29 778.235 408.58 778.283 407.35 777.285C406.748 771.786 407.089 754.17 407.277 748.192Z"/><path fill="#1F3654" d="M0 0L235.843 0C229.022 17.8484 222.389 35.7681 215.945 53.7563L187.894 128.657L58.0215 473.873C43.3895 512.628 28.5548 551.307 13.5179 589.907C10.5694 597.411 7.7198 604.953 4.96983 612.531C3.93133 615.339 1.3215 622.836 0 625.087L0 0Z"/><path fill="#1F3654" d="M788.75 1024C789.499 1020.91 792.413 1013.96 793.705 1010.62C796.304 1003.88 798.841 997.119 801.316 990.332L833.687 904.43L935.022 635.423L998.882 465.173C1004.03 451.536 1009.1 437.872 1014.1 424.182C1016.33 418.124 1021.1 404.298 1024 399.414L1024 1024L788.75 1024Z"/></svg>